<mxfile host="Electron" modified="2024-03-19T18:15:10.703Z" agent="Mozilla/5.0 (Windows NT 10.0; Win64; x64) AppleWebKit/537.36 (KHTML, like Gecko) draw.io/24.0.4 Chrome/120.0.6099.109 Electron/28.1.0 Safari/537.36" etag="8okAUE58THiVJsZYE8EU" version="24.0.4" type="device">
  <diagram name="Page-1" id="Siujx9iB2q1gVFZF8jnH">
    <mxGraphModel dx="1050" dy="621" grid="1" gridSize="10" guides="1" tooltips="1" connect="1" arrows="1" fold="1" page="1" pageScale="1" pageWidth="850" pageHeight="1100" math="0" shadow="0">
      <root>
        <mxCell id="0" />
        <mxCell id="1" parent="0" />
        <mxCell id="1m5xNdLJdXn0Z3yJbncu-1" value="AWS Cloud" style="sketch=0;outlineConnect=0;gradientColor=none;html=1;whiteSpace=wrap;fontSize=13;fontStyle=1;shape=mxgraph.aws4.group;grIcon=mxgraph.aws4.group_aws_cloud;strokeColor=#CC6600;fillColor=none;verticalAlign=top;align=left;spacingLeft=30;fontColor=#CC6600;dashed=0;fontFamily=Poppins;fontSource=https%3A%2F%2Ffonts.googleapis.com%2Fcss%3Ffamily%3DPoppins;strokeWidth=3;" parent="1" vertex="1">
          <mxGeometry x="50" y="30" width="410" height="520" as="geometry" />
        </mxCell>
        <mxCell id="1m5xNdLJdXn0Z3yJbncu-3" value="VPC" style="sketch=0;outlineConnect=0;gradientColor=none;html=1;whiteSpace=wrap;fontSize=13;fontStyle=1;shape=mxgraph.aws4.group;grIcon=mxgraph.aws4.group_vpc;strokeColor=#4e7e5c;fillColor=none;verticalAlign=top;align=left;spacingLeft=30;fontColor=#207e20;dashed=0;strokeWidth=3;fontFamily=Poppins;fontSource=https%3A%2F%2Ffonts.googleapis.com%2Fcss%3Ffamily%3DPoppins;" parent="1" vertex="1">
          <mxGeometry x="90" y="70" width="330" height="450" as="geometry" />
        </mxCell>
        <mxCell id="1m5xNdLJdXn0Z3yJbncu-5" value="Public subnet" style="points=[[0,0],[0.25,0],[0.5,0],[0.75,0],[1,0],[1,0.25],[1,0.5],[1,0.75],[1,1],[0.75,1],[0.5,1],[0.25,1],[0,1],[0,0.75],[0,0.5],[0,0.25]];outlineConnect=0;gradientColor=none;html=1;whiteSpace=wrap;fontSize=13;fontStyle=1;container=1;pointerEvents=0;collapsible=0;recursiveResize=0;shape=mxgraph.aws4.group;grIcon=mxgraph.aws4.group_security_group;grStroke=0;strokeColor=#7AA116;fillColor=#F2F6E8;verticalAlign=top;align=left;spacingLeft=30;fontColor=#248814;dashed=0;fontFamily=Poppins;fontSource=https%3A%2F%2Ffonts.googleapis.com%2Fcss%3Ffamily%3DPoppins;" parent="1" vertex="1">
          <mxGeometry x="120" y="280" width="260" height="220" as="geometry" />
        </mxCell>
        <mxCell id="OZN5F1gUm0z-Fjc5LyQY-3" value="&lt;font size=&quot;1&quot; style=&quot;&quot; data-font-src=&quot;https://fonts.googleapis.com/css?family=Poppins&quot; face=&quot;Poppins&quot;&gt;&lt;b style=&quot;font-size: 11px;&quot;&gt;Route Table&lt;/b&gt;&lt;/font&gt;" style="text;html=1;align=center;verticalAlign=middle;whiteSpace=wrap;rounded=0;" parent="1m5xNdLJdXn0Z3yJbncu-5" vertex="1">
          <mxGeometry x="116" y="34" width="80" height="30" as="geometry" />
        </mxCell>
        <mxCell id="IUAdgHjnMNCOIVBOKmxP-1" value="" style="outlineConnect=0;dashed=0;verticalLabelPosition=bottom;verticalAlign=top;align=center;html=1;shape=mxgraph.aws3.internet_gateway;fillColor=#F58534;gradientColor=none;" parent="1" vertex="1">
          <mxGeometry x="200" y="40" width="60" height="60" as="geometry" />
        </mxCell>
        <mxCell id="IUAdgHjnMNCOIVBOKmxP-2" value="" style="outlineConnect=0;dashed=0;verticalLabelPosition=bottom;verticalAlign=top;align=center;html=1;shape=mxgraph.aws3.route_table;fillColor=#F58536;gradientColor=none;" parent="1" vertex="1">
          <mxGeometry x="243" y="270" width="55" height="49" as="geometry" />
        </mxCell>
        <mxCell id="OZN5F1gUm0z-Fjc5LyQY-4" value="&lt;font size=&quot;1&quot; style=&quot;&quot; data-font-src=&quot;https://fonts.googleapis.com/css?family=Poppins&quot; face=&quot;Poppins&quot;&gt;&lt;b style=&quot;font-size: 11px;&quot;&gt;Internet Gateway&lt;/b&gt;&lt;/font&gt;" style="text;html=1;align=center;verticalAlign=middle;whiteSpace=wrap;rounded=0;" parent="1" vertex="1">
          <mxGeometry x="250" y="70" width="80" height="30" as="geometry" />
        </mxCell>
        <mxCell id="95S0HzuBTSXOkdzzpTou-13" value="&lt;font size=&quot;1&quot; data-font-src=&quot;https://fonts.googleapis.com/css?family=Poppins&quot; face=&quot;Poppins&quot; style=&quot;&quot;&gt;&lt;b style=&quot;font-size: 11px;&quot;&gt;EC2&lt;/b&gt;&lt;/font&gt;" style="outlineConnect=0;dashed=0;verticalLabelPosition=bottom;verticalAlign=top;align=center;html=1;shape=mxgraph.aws3.ec2;fillColor=#F58534;gradientColor=none;" parent="1" vertex="1">
          <mxGeometry x="140" y="360" width="64" height="70" as="geometry" />
        </mxCell>
        <mxCell id="95S0HzuBTSXOkdzzpTou-17" value="&lt;b&gt;&lt;font style=&quot;font-size: 11px;&quot; face=&quot;Poppins&quot;&gt;Router&lt;/font&gt;&lt;/b&gt;" style="outlineConnect=0;dashed=0;verticalLabelPosition=middle;verticalAlign=middle;align=left;html=1;shape=mxgraph.aws3.router;fillColor=#F58534;gradientColor=none;labelPosition=right;" parent="1" vertex="1">
          <mxGeometry x="236" y="146.5" width="69" height="72" as="geometry" />
        </mxCell>
        <mxCell id="95S0HzuBTSXOkdzzpTou-19" style="edgeStyle=orthogonalEdgeStyle;rounded=0;orthogonalLoop=1;jettySize=auto;html=1;entryX=0.5;entryY=1;entryDx=0;entryDy=0;entryPerimeter=0;strokeWidth=3;" parent="1" source="95S0HzuBTSXOkdzzpTou-17" target="IUAdgHjnMNCOIVBOKmxP-1" edge="1">
          <mxGeometry relative="1" as="geometry" />
        </mxCell>
        <mxCell id="95S0HzuBTSXOkdzzpTou-21" style="edgeStyle=orthogonalEdgeStyle;rounded=0;orthogonalLoop=1;jettySize=auto;html=1;entryX=0.5;entryY=1;entryDx=0;entryDy=0;entryPerimeter=0;strokeWidth=3;" parent="1" source="IUAdgHjnMNCOIVBOKmxP-2" target="95S0HzuBTSXOkdzzpTou-17" edge="1">
          <mxGeometry relative="1" as="geometry" />
        </mxCell>
        <mxCell id="95S0HzuBTSXOkdzzpTou-22" value="&lt;font data-font-src=&quot;https://fonts.googleapis.com/css?family=Poppins&quot; face=&quot;Poppins&quot; style=&quot;font-size: 10px;&quot;&gt;&lt;b style=&quot;font-size: 10px;&quot;&gt;Security Group&lt;/b&gt;&lt;/font&gt;" style="fontStyle=0;verticalAlign=top;align=left;spacingTop=-2;fillColor=none;rounded=0;whiteSpace=wrap;html=1;strokeColor=#FF0000;strokeWidth=2;dashed=1;container=1;collapsible=0;expand=0;recursiveResize=0;fontSize=10;" parent="1" vertex="1">
          <mxGeometry x="125.5" y="335.5" width="93" height="119" as="geometry" />
        </mxCell>
      </root>
    </mxGraphModel>
  </diagram>
</mxfile>
